<svg version="1.2" xmlns="http://www.w3.org/2000/svg" viewBox="0 0 800 800" width="50" height="50">
	<title>New Project</title>
	<style>
		.s0 { opacity: 1;fill: #6d5937 } 
		.s1 { opacity: 1;fill: #d0c6aa } 
	</style>
	<g id="Layer 1">
		<path id="Path 0" fill-rule="evenodd" class="s0" d="m195.6 128.8c2.8 2.1 4.9 4.6 4.8 5.4-0.1 1-0.6 1-1.7-0.2-0.9-0.8-2.4-1.6-3.5-1.6-1 0-2.5-1-3.4-2.1-0.8-1.2-1.4-2.9-1.3-3.8 0.1-1.1 1.9-0.3 5.1 2.3zm-94.6 8.7c0.4 0 0.4 1.7 0 3.7-0.5 2.7-0.1 4 1.2 4.4 1 0.4 1.6 1.2 1.2 1.9-0.3 0.7-1.6 0.9-2.8 0.5-1.2-0.5-2.5-0.3-3 0.3-0.5 0.6 0.3 2.9 1.8 5.1 1.6 2.2 3.4 3.9 4 3.6 0.7-0.2 1.4-1.6 1.6-3.1 0.2-1.6 1.2-2.7 2.5-2.7 1.2 0 3-1.2 4.1-2.8 1-1.5 2.2-3.9 3.4-7.8l0.8 2.5c0.5 1.4 1.9 4.3 3 6.6 1.2 2.2 2.7 3.9 3.4 3.8 0.7-0.2 2.9 1.2 5 3.1 2 1.9 4.1 3.4 4.7 3.4 0.5 0 0.9-0.9 0.9-1.9 0-1 0.6-1.9 1.2-1.9 0.7 0 1.8-2.1 2.5-4.7 0.6-2.5 2-5.5 3.1-6.5 1.1-1 2-2.9 2-4.1 0-1.2 0.5-2.2 1.2-2.2 0.7 0 2.2 0.4 3.4 0.8 2.1 0.7 2.1 0.8 0 2.2-1.2 0.8-1.7 2.1-1.2 2.9 0.7 1.3 1.7 1.3 4.9 0.1 2.9-1.1 4.3-1.2 5-0.2 0.5 0.7 2.4 2.1 4.1 3 2.8 1.4 3.4 1.2 5.9-1.7 1.6-1.8 3.4-3.3 4.1-3.3 0.7 0 1 1.1 0.6 2.5-0.4 1.5 0.1 2.7 1.3 3.1 1.1 0.4 1.9 2.2 1.9 4.4 0 2.3 0.8 4.2 2.1 4.9 2.1 1 2.1 1.4 0 7.4-1.4 4.2-1.8 7.2-1 8.6 0.6 1.2 1.1 3.9 1.1 5.9 0.1 2.1 0.3 3.9 0.5 4 0.2 0.2 1.7-0.1 3.3-0.6 1.6-0.5 3.9-2.8 5-5.1 1.1-2.4 2.8-4.5 3.6-4.7 0.9-0.3 3.1 0.5 5 1.7 1.9 1.2 6 2.3 9.1 2.5 3.1 0.2 7.3 1.2 9.3 2.3 2.1 1 5.2 1.8 6.9 1.8 1.7 0 5.4 1.6 8.1 3.5 2.8 2 6.5 5.3 8.3 7.3 1.8 1.9 4.7 5.8 6.3 8.6 1.7 2.7 4.3 10.3 5.8 16.8 1.5 6.5 3 15.8 3.4 20.6 0.5 5.8 0.1 11.7-1.1 17.5-1.4 6.2-2.7 9.4-4.8 11-1.6 1.2-4.6 2.2-6.6 2.2-2.1-0.1-5-0.9-6.6-2-1.5-1-4-4.2-5.4-7.1-1.8-3.7-2.5-7.1-2.2-10.8 0.3-3.9-0.1-5.9-1.4-6.8-1.1-0.7-2.9-0.9-4.1-0.4-1.2 0.4-2.8 2.5-3.4 4.5-1.3 3.7-1.4 3.8-14.1 1.9l1 6.2c0.6 3.5 1 8.3 0.9 10.7 0 2.4-0.2 10.5-0.4 18.1-0.2 10 0.3 15.6 1.8 20.6 1.8 5.7 1.9 8.1 0.8 14.3-0.8 4.6-2.3 8.4-3.8 9.7-1.6 1.4-2.4 3.5-2.2 5.6 0.2 2.3 1.1 3.5 2.4 3.5 1.1 0 3.3 1.1 4.8 2.5 1.4 1.3 3.3 4.6 4.2 7.2 0.8 2.7 2.8 6.2 4.6 8 2.6 2.6 3.5 2.8 5.9 1.7 1.5-0.7 4-3.7 5.5-6.6 1.4-3 4.2-7.3 6-9.7 1.9-2.4 4.9-8.3 6.7-13.1 1.8-4.8 3.3-9.8 3.3-11 0-1.2 1.4-3.4 3.1-4.9 1.7-1.6 3.6-4.4 4.4-6.3 0.7-1.9 1.3-7.5 1.2-12.5 0-6-0.6-9.9-1.9-11.5-1-1.4-1.8-4.4-1.8-6.6 0-2.2 0.9-6.4 2-9.4 1.1-2.9 5.3-12 9.2-20.2 4-8.3 8.7-16.9 10.5-19.1 1.8-2.2 3.3-4.3 3.3-4.7 0-0.3 2-3.4 4.4-6.8 2.4-3.5 4.3-7.1 4.3-8.2 0-1 0.5-1.8 1-1.8 0.5 0.1 1.7-1.8 2.7-4 1-2.3 3.3-6.4 5.1-9.1 1.9-2.8 4.6-7.4 6.1-10.3 1.5-3.1 4.6-6.6 7.3-8.3 3.3-2 5.5-4.8 7.5-9.3 1.5-3.6 3.4-6.2 4.1-5.9 0.6 0.4 1.9 2.2 2.6 4.1 0.8 1.9 1.9 9.9 2.4 17.8 0.6 8.3 1.8 16.3 3 19 1.5 3.8 1.9 9.5 1.9 27.8 0 12.7-0.4 23.1-0.9 23.1-0.5 0-0.9 1.9-1 4.1 0 2.2-0.4 7.4-0.9 11.5-0.5 4.2-1.2 16.9-1.6 28.4-0.5 18.8-0.8 21.2-3 23.5-1.4 1.3-2.5 3.6-2.5 5 0 1.3 0.5 2.5 1.2 2.5 0.7 0 1 0.5 0.6 1.2-0.3 0.7 0.5 3.5 1.9 6.2 1.4 2.8 2.5 5.6 2.5 6.3 0 0.7 1.3 3.3 3 5.9 1.6 2.6 3.6 6.8 4.4 9.4 0.7 2.6 1.9 4.7 2.6 4.7 0.7 0 1.9-1.3 2.8-2.8 0.8-1.6 2.2-4.8 3.2-7.2 0.9-2.4 2.4-7.8 3.3-11.9 0.9-4.1 1.6-9.2 1.7-11.2 0-2.1 1.2-6.9 2.7-10.6 1.5-3.8 3.8-8.7 5.1-11 1.3-2.2 2-4 1.5-4-0.5-0.1-0.3-0.5 0.4-1 0.8-0.5 2.2-2.3 3.1-4.1 1-1.7 2.9-5 4.3-7.3 1.4-2.3 4.3-6.7 6.5-9.6 2.3-3 4.9-7.6 6-10.2 1.3-3.5 2.8-4.9 5.6-5.6 3.1-0.8 4-1.9 5.5-6.9 1-3.2 2.1-7.7 2.5-10 0.5-2.8 1.3-3.8 2.6-3.4 1.1 0.4 2.7-0.6 3.7-2.2 1-1.5 2.3-5.2 2.8-8.1 0.7-3.8 1.7-5.6 3.5-6.1 1.6-0.5 3 0.1 4.1 1.6 0.8 1.3 1.6 3.6 1.5 5.1 0 1.6 0.5 2.8 1 2.8 0.6 0 1.7-0.7 2.5-1.5q1.5-1.6 0.6-6.8c-0.9-4.7-0.7-5.2 1.4-5 1.6 0.2 2.8-1 3.6-3.5 0.8-2.1 2.1-4.5 3-5.3 1.3-1.3 2-1.2 3.2 0.3 0.9 1.1 3.1 2.2 5 2.5 2 0.4 3.4 1.4 3.4 2.5 0 1 1.7 4.2 3.8 7.2 2.1 2.9 5.2 7.4 6.9 10 1.7 2.5 3.8 4.6 4.6 4.6 0.9 0 2.4 1.5 5.2 6.9l0.7-3.7c0.4-2.1 0.6-4.9 0.4-6.3-0.3-1.4-2.4-3.6-4.8-5-2.4-1.4-4.3-3.2-4.3-4 0-0.9-1.8-3.5-4-5.8-2.3-2.3-5-4.6-6.2-5.3-1.1-0.6-2.4-3.2-2.8-5.8-0.4-2.6-1.8-7.9-3.2-11.9-1.4-3.9-2.5-8.4-2.5-9.9 0-1.8-0.9-3.1-2.5-3.5-1.4-0.3-2.5-1.2-2.5-1.9 0-0.6-0.7-1.2-1.6-1.2-0.8 0.1-2.5-1.1-3.7-2.5-2.1-2.4-2.1-2.5 0.6-3.3 2.2-0.6 3.7 0.2 7 4.1 3.8 4.4 4.3 4.6 5.6 2.6 0.8-1.2 2.3-1.9 3.3-1.6 1.1 0.3 2.3 1.5 2.9 2.5 0.5 1.1 2.3 2.5 4 3.2 1.7 0.7 5.4 4.3 8.1 8.1 2.8 3.8 5.6 6.6 6.3 6.3 0.7-0.4 1.6 0.3 2 1.5 0.5 1.2 2.3 3.8 4.1 5.7 1.8 1.9 3.9 3.4 4.8 3.4 0.9 0 1.6 0.5 1.6 1.2 0 0.7 1.2 1.8 2.8 2.5 1.5 0.7 3.5 2.7 4.3 4.4 0.9 1.7 2.4 3.1 3.5 3.1 1 0 2.8 1.5 4 3.4 1.2 1.9 3 4.2 4.1 5 1 0.8 3 1.5 4.4 1.5 1.3 0.1 4.8 2.6 7.8 5.7 2.9 3.1 5.6 5.6 5.9 5.6 0.3 0 2.4 2.1 4.7 4.6 2.2 2.4 5.3 6.5 6.8 9 1.6 2.5 2.8 5.4 2.8 6.4 0 1 1.7 3.6 3.7 5.6 2.9 2.9 3.6 4.5 3.1 6.9-0.4 1.7 0.2 6.6 1.3 10.9 1.1 4.3 3.4 9.9 5.1 12.5 1.7 2.6 3.2 6.1 3.1 7.8 0 1.7 0.7 5.1 1.4 7.5 0.8 2.4 1.6 5.1 1.9 5.9 0.3 1.1 1 1.2 2.3 0.4 1.5-1 2-0.5 2.5 2.5 0.5 2.7 1.5 3.9 3.8 4.3 1.7 0.4 3.1 1.5 3.1 2.5 0 1 1.4 2.2 3.1 2.5 1.9 0.4 3.1 1.5 3.2 2.8 0 1.9 0.4 1.7 2.2-0.7 1.1-1.5 2.6-2.8 3.3-2.8 0.7 0 2 4.3 2.8 9.4 1.5 8.8 1.9 9.5 5.4 10.7 2.8 0.9 3.7 2 3.7 4.3 0 1.8-0.6 3.4-1.2 3.8-0.7 0.3-1.3 1.7-1.3 3.1 0 1.4 0.6 2.5 1.3 2.5 0.6 0 1.5-0.8 1.8-1.9 0.5-1.5 1-1.5 2.5-0.3 1.1 0.9 2.2 4.6 2.6 8.5 0.5 4.2 0.2 7.3-0.6 8.1-0.8 0.7-1.4 3.9-1.4 7.1 0 3.6 0.8 6.7 1.9 7.9 1 1 2.7 1.5 3.8 1.2 1-0.3 1.6-1.5 1.2-2.5-0.3-1-0.3-1.9 0-1.9 0.4 0 1.8 0.6 3.1 1.3 1.9 0.9 3.1 0.7 4.7-0.5 1.2-1 5.8-5.1 10.1-9.1 4.4-4 10.4-11.2 13.3-16 3-4.8 6.7-11.6 8.2-15 1.5-3.4 3.1-7.4 3.7-8.7 0.5-1.4 2.2-6.8 3.7-11.9 1.5-5.2 3.3-11.5 3.9-14.1 0.6-2.5 2.2-6.7 3.6-9.3 1.3-2.6 3.6-7.2 5-10.3 1.5-3.1 3.2-9.6 3.8-14.4 0.7-4.8 1.9-12.9 2.7-18.1 0.7-5.1 2.1-10.1 3.1-10.9 1.4-1.3 2-0.7 3.7 3.1 1.7 3.9 1.9 7 1 18.4-0.5 7.6-1 18-1 23.1-0.1 5.2 0.7 15.9 1.6 23.8 1.6 13.2 1.6 14.8-0.5 21.2-1.2 3.8-2.1 8.8-2 11.2 0.2 2.4 1 6.1 1.8 8.1 0.9 2.1 3.2 5.9 5.3 8.5 2 2.6 4.3 4.7 5.2 4.7 0.8 0 2.1 1.8 2.7 4 0.7 2.2 2.1 4.5 3.2 5 1.2 0.6 2.1 0.3 2.5-0.9 0.4-1.1 1.8-1.9 3.1-1.9 1.4 0 3.1 1.1 3.8 2.5 0.7 1.4 2.4 2.5 3.7 2.5 1.7 0 3.2 1.5 4.6 4.7 1.1 2.5 3.2 6.9 4.6 9.6 1.4 2.8 4.5 7.8 6.9 11.3 2.6 3.7 5.3 10 6.8 15.6 1.3 5.1 2.9 12.2 3.4 15.6 0.6 3.4 1.7 9.3 2.5 13.1 0.8 3.8 2.2 8.4 3.2 10.3 1 1.9 1.5 3.9 1.2 4.4-0.3 0.5 0 2.6 0.7 4.7 0.7 2 1.4 4.3 1.6 5 0.1 0.6 1 3.5 1.8 6.2 0.9 2.8 2.3 6.6 3.1 8.6 0.8 2 3 4.4 4.9 5.3 1.9 0.9 3.4 2.7 3.4 3.9 0 1.2 3.3 6.4 7.5 11.6 4.1 5.1 8.4 11.3 9.5 13.7 1.2 2.4 3 5.3 4.1 6.5 1.7 1.8 1.7 2.5 0.5 4.1-1.1 1.3-1.2 2.9-0.4 5.3 0.6 1.9 1.4 6.8 1.8 10.9 0.3 4.2 1.1 9.1 1.6 11 0.9 3.1 0.8 3.3-1.8 2.8-1.5-0.4-3.7 0-4.7 0.9-1.5 1.2-1.8 2.9-1.2 7.2 0.5 3.1 1.2 6.7 1.6 8.1 0.6 2 0.3 2.3-1.4 1.6-1.7-0.8-2.1-0.2-2.1 3.1-0.1 2.2-0.1 11.1 0 19.7 0.1 15.1 0.2 15.7 7.5 26.2l-3 2.8c-3 2.7-3 3-1.2 7.8 1 2.7 2.5 5.7 3.3 6.6 0.9 0.9 1 1.6 0.3 1.6-0.7 0 0.3 0.8 2.2 1.8 2.1 1.2 3.2 2.6 2.8 3.7-0.4 1.1 0.2 2.7 1.2 3.8 1.1 1 3.3 2.4 5 3.1 2 0.8 3.2 2.3 3.3 4.1 0 2 0.4 1.6 1.4-1.6 0.8-2.4 1.6-3.5 1.8-2.5 0.3 1-0.2 3.6-1 5.6-0.8 2.1-1.4 4.2-1.3 4.7 0.1 0.5-0.4 0.9-1.1 0.9-0.6 0-1.9 1.5-2.8 3.4-1.3 3-2.7 3.5-11.2 5-8.5 1.4-10.4 1.4-15.6-0.4-3.3-1-7.1-2.5-8.4-3.3-1.4-0.7-3.8-2.6-5.3-4.2-1.6-1.6-2.9-3.4-2.9-3.9 0-0.5 0.7-1.6 1.6-2.5 1.2-1.2 1.2-1.9 0.1-3.1-0.8-0.9-1.1-2.4-0.6-3.4 0.4-1 2.6-3.8 4.9-6.2 2.8-3.1 4.5-6.6 5.5-11.3 0.8-3.8 1.4-15.3 1.5-25.6 0-10.3-0.7-25.5-1.6-33.8-0.9-8.2-2.6-17.7-3.9-21.2-1.2-3.4-3.4-9.3-4.8-13.1-1.4-3.8-3.5-10.2-4.7-14.4-1.2-4.1-4.5-13.6-7.5-21.2-2.9-7.5-7.6-17.9-10.5-23.1-2.8-5.1-7.4-14.1-10.1-20-2.7-5.8-6.2-12-7.8-13.7-1.6-1.7-5.2-6.5-7.9-10.6-2.8-4.1-8-11.2-11.6-15.6-3.6-4.5-7.3-10-8.3-12.2-0.9-2.2-2.2-4.1-2.9-4.1-0.7 0-1.6 0.8-2.1 1.6-0.6 1.2-1 1.1-1.8-0.3-0.8-1.6-1.5-1.6-4.2-0.3-2.2 1.1-3.5 3-4.2 6.2-0.7 3.4-1.6 4.6-3.1 4.4-1.2-0.2-2.1 0.5-2.1 1.6 0 1 0.1 2.3 0.3 2.8 0.2 0.5 0.7 0.8 1.2 0.6 0.6-0.2 0.6 1.2 0.2 3.1-0.5 1.9-1.3 3.7-1.7 4.1-0.5 0.3-0.8 6.5-0.7 13.7 0.2 9.5 0.8 14.2 2.3 17.2 1.2 2.2 2.7 4 3.4 4 0.7 0 1.2 0.9 1.2 1.9 0 1-0.6 2.9-1.3 4.1-1.1 1.7-0.3 4.5 3.7 13.1 2.8 6 5.1 11.7 5.1 12.8 0 1 1.1 2.4 2.5 3.1 1.4 0.7 2.5 2.4 2.5 3.7 0 1.4-0.5 2.3-1.2 1.9-0.7-0.3-1.2 0.9-1.1 2.8 0 1.9 0.3 2.5 0.6 1.3 0.2-1.2 0.9-2.2 1.4-2.2 0.5 0 1.1 2 1.2 4.4 0.3 3.2-0.2 4.5-1.8 5.1-1.2 0.4-3.5 0.4-5 0-1.7-0.5-2.8-1.7-2.8-3.3 0-1.3-1.1-4.3-2.5-6.5-1.3-2.3-3-6.6-3.8-9.7-0.8-3.1-2-8.4-2.7-11.9-0.7-3.4-3.2-9.9-5.6-14.3-2.4-4.5-5.3-9.1-6.4-10.3-1.9-2-2.2-2-3.4-0.2-0.7 1.1-2.4 1.8-3.7 1.5-1.5-0.2-2.6-1.5-2.8-3.2-0.2-1.5-0.9-2.8-1.6-2.8-0.7 0-1.2 1-1.2 2.2 0 1.2 0.6 5.5 1.3 9.7 0.7 4.1 2.2 12.2 3.3 18.1 1 5.8 2.6 13.4 3.5 16.8 0.8 3.5 2.7 8.5 4.1 11.3 1.4 2.7 3.7 7.6 5.1 10.9 1.5 3.3 2.6 6.5 2.6 7.2 0 0.7-0.9 1.5-2.1 1.9-1.3 0.3-3.5 1.6-7.7 4.9l2.4 5c1.4 2.8 2.5 5.9 2.4 6.9 0 1 1.2 2.6 2.5 3.4 1.4 0.9 2.5 2.4 2.5 3.5 0 1-0.5 4.6-2.5 14.3l-11.8-0.6-2.4 7.5c-1.3 4.1-2.7 8.3-3 9.4-0.3 1-0.8 3-1.1 4.3-0.3 1.4-1 2.7-1.7 2.8-0.6 0.2-0.9 0.8-0.7 1.3 0.3 0.5-0.5 5.1-1.9 10.3-1.4 5.1-2.7 13.4-3 18.4-0.6 8.9-0.5 9.1 2.8 10.7 2 0.9 3.3 2.4 3 3.4-0.3 1-0.7 4.8-0.9 8.4-0.3 3.8 0 6.5 0.8 6.5 0.6 0 0.9 0.6 0.6 1.3-0.4 0.7-2.4 0.9-4.7 0.4-2.2-0.5-6-2.4-8.4-4.2-2.4-1.9-6.1-3.8-8.1-4.2-2.1-0.4-5.5-0.3-7.5 0.2-2.1 0.6-5 0.9-6.6 0.7-2.3-0.3-2.6-0.9-1.9-3.2 0.5-1.6 2.2-4.2 3.9-5.9 1.6-1.8 4.1-5.7 5.4-8.8 1.4-3.1 3.8-9.8 5.4-15 1.7-5.1 4.5-16.1 6.3-24.3 1.8-8.3 4.1-19.8 5.1-25.6 0.9-5.9 1.7-16.5 1.7-23.7 0-7.3-0.8-18.5-1.7-25-1-6.5-2.8-14.4-4-17.5-1.2-3.1-4.4-9.3-7.1-13.7-2.7-4.5-6.7-10-8.9-12.3-2.1-2.3-4-5.1-4.2-6.2-0.2-1.2-1.1-2.7-2.1-3.4-0.9-0.7-1.9-2.3-2.2-3.6-0.2-1.3-1.3-3-2.5-3.7-1.7-1.2-3.8-0.3-11.2 4.8-5 3.4-13.7 10.8-19.3 16.2-8 8-11.5 10.5-16.8 12.3-5.4 1.7-9 2-18 1.4-6.2-0.5-13.2-1.8-15.6-2.9-2.3-1.1-7.5-5.9-11.4-10.8-4.2-5-8.5-12.1-10.3-16.8-2-5.1-5.3-10.3-8.9-14.1-3.1-3.2-5.6-5.6-5.6-5.3 0 0.4-2.3-1.6-5-4.3-2.8-2.8-5.3-4.6-5.7-4.1-0.3 0.5-0.6 0.2-0.6-0.6 0-0.9-1.8-3.4-4-5.6-2.3-2.3-6.1-5.6-8.5-7.5-2.4-1.9-5.5-3.4-6.9-3.4-1.4 0-3.2 0.6-4.1 1.5-0.8 0.9-1.5 4.6-1.4 8.4 0 3.8-0.8 9-1.9 11.6-1 2.6-2.4 7.5-3.1 10.9-0.7 3.4-1.8 6.2-2.5 6.2-0.7 0-1.3-1.1-1.3-2.4 0-1.4-0.8-4.5-1.9-6.9q-1.8-4.4-4.3-4.4c-2.1 0-2.6 0.9-2.8 5.9-0.2 3.3 0.3 7.9 1.1 10.3 0.8 2.4 1.5 8.1 1.7 12.5 0.1 4.5 0.3 10.7 0.4 13.8 0.1 3.1 0.6 6.1 1 6.8 0.4 0.7 1.2 3.3 1.7 5.7 0.8 3.7 1.1 4 2 1.8 0.9-2.3 0.9-2.3 1 0.3 0.1 1.6-0.5 6.6-1.1 11.3-0.7 4.6-1.6 13.9-1.9 20.6-0.4 7.5-1.1 11.9-1.9 11.5-0.7-0.3-1.2 0-1.2 0.7 0 0.6 0.7 1.4 1.5 1.6 1 0.2 0.8 0.7-0.6 1.2-1.8 0.8-2.1 0.3-1.9-2.8 0.2-2.1-0.3-4-1.2-4.4-0.9-0.3-2.6-2.6-3.8-5-1.7-3.4-2.5-4-3.7-2.8-0.9 0.9-1.9 2.8-2.2 4.4-0.3 1.5-0.1 4 0.5 5.6 0.6 1.6 0.6 4.1-0.1 5.9-0.6 1.7-1.3 5.8-1.4 9.1-0.1 3.2 0 5.9 0.4 5.9 0.3 0 0.6 2.3 0.6 5.1 0 2.8-0.7 5.7-1.7 6.5-1.2 1.1-2.2 1.1-3.7 0.1-1.2-0.8-3.1-0.9-4.6-0.4-1.4 0.6-1.8 1-0.9 1.1 0.8 0 1.5 0.8 1.5 1.6 0 0.9-0.8 3.1-1.8 5-1.1 1.9-1.6 4.2-1.2 5 0.3 0.9 0.1 3.1-0.6 5-1 2.6-1 3.7 0.2 4.2 1.2 0.6 1.2 1 0.1 1.6-0.8 0.4-1.6 3.9-1.7 7.6-0.2 3.8-0.5 7.9-0.8 9.1-0.3 1.5-1 1.9-2.4 1.2-1.5-0.7-1.8-0.4-1.2 1.3 0.4 1.3 0.1 2.2-0.9 2.1-0.8 0-1 0.4-0.5 1 0.6 0.5 1.6 1 2.2 1 0.6 0 1.1 0.5 1.1 1.2-0.1 0.7-0.9 1.1-1.9 0.9-1-0.1-1.5 0.3-1.2 1 0.4 0.7 1.5 1.2 2.5 1.2 1.1 0 1.9 0.9 1.9 1.9 0 1-0.3 2.7-0.6 3.7-0.4 1.1-1.5 1.9-2.5 1.9-1.2 0-1.8 1-1.6 2.5 0.2 1.4 0.8 2.5 1.3 2.5 0.5 0 0.9 2.8 0.9 6.3 0 3.4 0.8 7.9 1.9 9.9 1.4 3 1.5 4 0.3 4.6-0.9 0.5-2.4-0.3-3.4-1.9-1.1-1.5-2.8-2.7-3.8-2.7-1.7 0.1-1.7 0.2 0 1.3 1.4 0.9 0.8 1.2-2.5 1.3-2.9 0-5.1 0.9-6.6 2.8-1.2 1.5-2.2 3.3-2.1 4 0 0.7-1.1 0.1-2.5-1.2-1.4-1.4-2.6-3-2.6-3.5 0.1-0.5-1.7-2.7-4-4.9-2.2-2.1-4.2-3.8-4.4-3.7-0.1 0.1-1.1 0.2-2.1 0.2-1.1 0-3.2-1.5-4.7-3.3-1.6-1.9-3.8-4.4-5-5.7-1.2-1.2-2.8-3.5-3.6-5-0.8-1.7-1-5.1-0.5-8.5 0.4-3.1 1-7 1.3-8.7 0.2-1.7 1.5-9 2.9-16.3 2.2-11.3 2.3-15.1 1.3-28.7-0.6-8.6-2-20.4-3.1-26.2-1-5.8-2.4-13.1-3-16.2-0.6-3.1-1.7-9.9-2.4-15-0.8-5.2-2.2-17-3.2-26.2-0.9-9.3-2.4-18.3-4.9-23.1l-8.8 8.6c-4.8 4.7-10.8 9.4-13.2 10.4-2.6 1.1-9 1.9-16.2 1.9-6.5 0.1-15.5-0.5-20-1.4-4.7-0.8-10.5-3-13.7-5.1-3.1-2-9.6-5.1-14.4-7-4.8-1.8-11.8-4.5-15.6-5.9-3.8-1.4-7.7-3.2-8.7-4-1.1-0.8-5.2-2.9-9.3-4.5-4.1-1.7-8.6-4.3-10-6-1.4-1.6-3.6-4-4.8-5.3-1.2-1.3-2.1-3-2.1-3.9 0-0.9-0.4-2-0.9-2.6-0.6-0.6-1.2-1.6-1.3-2.2-0.2-0.6-0.3-1.4-0.3-1.8 0-0.3-0.3-1.1-0.7-1.8-0.3-0.7-0.6-1.4-0.7-1.6 0-0.2-0.4-1.4-0.7-2.8-0.4-1.4-0.7-3.6-0.7-5 0-1.4 0.1-13.5 0.2-26.8 0.1-14.7-0.3-25.8-1.1-27.8-0.7-1.9-1.3-4.7-1.3-6.3 0-1.5-0.9-5.7-1.9-9.3-1.4-5-3.8-8.7-10-15.3-4.5-4.8-8.1-9.1-8.1-9.4 0-0.3 1-0.5 2.2-0.3 1.2 0.3 3.4 1.1 5 1.9 2.7 1.5 2.8 1.5 2-5-0.4-3.6-1.3-7.2-1.9-7.8-0.6-0.7-1.1-3.3-1.1-5.7 0-2.4-0.7-5.9-1.5-7.8-0.9-1.8-2-3.4-2.5-3.4-0.5 0-2.9 0.8-5.3 1.9-3.7 1.6-4.4 2.5-4.4 5.9-0.1 2.9-0.4 3.5-1.1 2.2-0.6-1-3.8-3.1-7.2-4.5-3.7-1.6-7.9-2.4-10.8-2.2-2.5 0.3-4.6-0.1-4.6-0.8 0-0.7-0.5-1-1-0.7-0.5 0.3-2.9-0.1-5.3-0.9-2.4-0.9-5.9-2.6-7.8-4-2.6-2-3.6-4.1-4.5-10-0.7-4.1-1-11.4-0.7-16.2 0.3-4.8 0.8-10.2 1-11.9 0.2-1.7 1.4-6.5 2.6-10.6 1.5-4.8 2-9.5 1.5-13.1-0.3-3.1-1.9-8.5-3.5-11.9-1.6-3.4-2.7-6.7-2.6-7.2 0.2-0.5-1.7-1.8-4.1-2.8-2.4-1-5.9-1.6-7.8-1.3-1.9 0.4-4.4 1.6-5.5 2.9-1.1 1.2-2.5 4.4-3 7.2-0.5 2.7-1.3 5.8-1.8 6.8-0.5 1.1-4.5 2.9-8.9 4.2-4.4 1.3-10.5 3.9-13.6 5.9-3.1 1.9-8.1 4.7-11.2 6.1-3.1 1.4-7.3 2.5-9.4 2.6-2 0-5-0.9-6.7-2.2-2.5-1.9-2.9-3.2-2.8-10 0.1-4.3 0.8-10.5 1.6-13.8 0.8-3.2 2.8-9.3 4.5-13.4 1.6-4.1 6.1-11.9 10-17.3 4-5.4 10.1-12.5 13.7-15.9 3.6-3.4 8.5-7 10.9-8 2.4-1 8.5-2.2 13.5-2.7 4.9-0.4 10.1-1.5 11.5-2.4 1.6-1 3.1-4.1 4-8.2 0.8-3.7 1.1-8.1 0.7-9.8-0.4-2 0.8-6.2 3.3-11.8 2.2-4.9 4.8-10.1 5.8-11.6 1.1-1.5 2.2-2.8 2.5-2.8zm605.8 41.2c3.2 0 5.1 0.5 4.8 1.2-0.4 0.7 1 1.3 3.1 1.3 2.1 0 4.7 0.5 5.9 1.2 1.2 0.6 5.3 2.1 9.1 3.2 3.8 1.2 9.7 4 13.1 6.2 3.4 2.2 8 6 10.1 8.3 2.1 2.3 5.1 6.3 6.5 8.9 1.8 3.1 2.7 6.8 2.7 10.9q0 6.2-1.5 6.3c-0.9 0-2.6 2.5-3.8 5.6-1.2 3.2-3 5.6-4 5.6-1.5 0-1.2-1.1 1.2-4.7 1.8-2.6 3.2-5.4 3.2-6.2 0-0.9-0.9-3.1-1.9-5-1-1.9-2.1-5-2.5-6.9-0.3-1.9-2.5-5.5-4.8-8.1-2.3-2.6-7.2-6-11-7.6-3.7-1.7-9.5-3.5-12.9-4.1-3.5-0.6-10.2-1.6-15-2.2-4.8-0.6-11.6-0.7-15-0.1-3.4 0.5-8.4 1.3-10.9 1.7-3.9 0.6-4.7 0.4-4.7-1.5 0.1-1.2-1.1-3.7-2.5-5.6-1.4-1.9-2.5-4.2-2.5-5.3 0-1.3 0.6-1.6 2.2-0.8 1.2 0.6 7.1 0.6 13.4-0.1 6.2-0.6 11.5-1.3 11.8-1.6 0.2-0.4 2.9-0.6 5.9-0.6zm26.6 74.6c1.7 0.4 6.8 0.6 11.3 0.5q8.1-0.2 10.9 1.7c1.5 1 3.4 1.6 4.1 1.2 0.6-0.3 1.2-0.2 1.2 0.4-0.1 0.5-1.1 1.6-2.2 2.4-1.2 0.9-3.9 1.5-5.9 1.6-2.1 0-4.9 0.8-6.3 1.8-1.3 1-4.1 1.9-6.2 1.9-2.1 0.1-4.4-0.6-5.3-1.5-1.2-1.3-1.9-1.2-3.6 0.3-1.8 1.7-2 1.6-1.6-0.6 0.4-1.8 1.7-2.6 4.6-2.8 2.2-0.2 4-0.9 4-1.6 0-0.7-2.2-1.2-5-1.2-2.7 0-5.8-0.3-6.8-0.7-1.1-0.3-1.9-1.1-1.9-1.8 0-0.7 1.3-1.5 2.8-1.8 1.5-0.2 4.2-0.2 5.9 0.2zm33.1 354.3l0.9 8.8c0.5 4.8 0.9 12.9 1 18.1 0.1 5.1 0.7 11.3 1.4 13.7 1 3.1 1 6.6 0 12.2-0.8 4.4-2 7.5-2.7 7.2-0.6-0.4-0.9-1.9-0.4-3.5 0.4-1.5 0.7-6.1 0.7-10.3-0.1-4.1-0.7-8-1.5-8.7-0.7-0.7-1.3-4.9-1.3-9.4 0-4.4 0.4-12.6 0.9-18.1zm-368.5 60.7c1.5 0 2 0.3 1.2 0.6-0.9 0.3-1.6 1.1-1.6 1.8 0 0.7 1.1 1.2 2.5 1.2 1.4 0 3.1 1.2 3.8 2.5 0.6 1.4 0.9 2.9 0.5 3.5-0.5 0.5-4.2 1.1-8.5 1.3-4.2 0.2-7.9 0.9-8.3 1.6-0.3 0.7-1.7 0.2-3.1-1-1.4-1.3-2.5-3.2-2.5-4.4 0-1.2 0.7-1.9 1.6-1.6 0.8 0.4 1.6-0.1 1.7-0.9 0.1-0.9 0.1-2 0-2.5-0.1-0.5 1.6-0.6 3.9-0.2 2.5 0.5 4.4 0.3 5-0.6 0.6-0.8 2.3-1.4 3.8-1.3z"/>
		<path id="Path 1" fill-rule="evenodd" class="s1" d="m154.6 108.2c2.8 0.5 7.3 2 10 3.4 2.8 1.3 5.9 3.1 6.9 4 1 0.8 3.8 2.2 6.2 3.1 2.5 0.9 6.2 2.4 8.5 3.4 2.3 0.9 4.1 2.6 4.1 3.8 0 1.2 0.7 3.2 1.5 4.4 0.9 1.1 2.4 2.1 3.4 2.1 1.1 0 2.6 0.7 3.4 1.6 0.9 1 1.2 3.3 0.8 6-0.5 3.1-0.1 5 1.3 6.5 1.1 1.2 2 3.9 2 6 0 2 0.6 4 1.3 4.3 0.7 0.4 1.2 1.8 1.2 3.2 0 1.3 2.1 4.7 4.7 7.4 4.4 4.6 5.2 5 11.6 5 3.9 0 8.9-0.9 11.8-2.3 2.8-1.2 10.7-7.2 17.6-13.4 6.9-6.1 15.6-12.7 19.4-14.6 4.9-2.5 9.3-3.6 16.1-4.1 5.1-0.4 14.7-0.1 21.2 0.6 6.5 0.7 15.8 1.9 20.6 2.6 4.8 0.7 11.6 2.3 15 3.5 4.5 1.5 10.3 2.1 21.2 2 9.5 0 18.2-0.7 23.8-2.1 4.8-1.1 10.4-2.5 12.4-3.2 2.1-0.6 6.6-2.2 10-3.6 3.5-1.4 13.6-4 22.5-5.8 8.9-1.8 19.1-3.8 22.5-4.4 3.4-0.7 9.9-1.6 14.3-2.1 4.5-0.4 9.9-1.3 11.9-2 2.1-0.6 9.9-1.8 17.5-2.7 7.5-0.9 20.2-1.4 28.1-1.2 9.3 0.4 19.2 1.7 28.1 3.7 7.5 1.8 19.1 4.6 25.6 6.4 6.5 1.7 14.9 4.6 18.7 6.2 3.8 1.7 8 3.7 9.4 4.4 1.4 0.8 4.4 1.8 6.8 2.3 2.5 0.5 7.8 1.9 11.9 3 5.9 1.7 8.4 1.8 11.9 0.8 2.4-0.8 6.2-1.4 8.4-1.4 2.2 0 5.9 0.7 8.1 1.6 2.3 0.9 5 3 6.2 4.7 1.2 1.7 4.2 9.5 6.7 17.4 2.5 7.9 5.1 15.2 5.7 16.2 0.6 1.1 1.7 3.3 2.5 5 0.7 1.8 2.7 6.2 4.4 10 2.2 5.1 5.1 8.6 10.8 13.4 4.2 3.6 11.1 9.2 15.2 12.5 4.1 3.4 10.3 7.3 13.8 8.7 3.4 1.5 9.6 3.3 13.7 4.2 6.1 1.2 8.6 1.2 13.4-0.2 5.3-1.5 6.2-2.4 8.2-7 1.2-3 2.8-5.3 3.7-5.3q1.5-0.1 1.5-6.3c0-4.1-0.9-7.8-2.7-10.9-1.4-2.6-4.4-6.6-6.5-8.9-2.1-2.3-6.7-6.1-10.1-8.3-3.4-2.2-9.3-5-13.1-6.2-3.8-1.2-8-2.6-9.4-3.2-1.4-0.6-4.2-1.3-6.2-1.5-3.3-0.4-3.5-0.6-1.3-1.6 1.6-0.6 7.1-0.3 14.4 0.9 6.5 1 13.8 2.7 16.2 3.8 2.4 1 6.1 2.5 8.1 3.3 2.1 0.7 5.6 3.2 7.9 5.4 2.3 2.3 4.1 4.5 4.1 5-0.1 0.6 2.4 3.6 5.4 6.9 3.1 3.3 6.1 8.1 6.8 10.9 0.8 2.8 1.4 8.5 1.4 12.8 0 4.7-0.8 9.7-2.1 12.5-1.2 2.6-3.3 5.5-4.7 6.6-1.4 1-3 1.7-3.5 1.5-0.5-0.1-2 0.7-3.4 1.9-1.4 1.2-2.5 2.9-2.5 3.8 0 0.8-0.6 1.8-1.2 2.1-0.7 0.4-2.6-0.2-4.1-1.2-1.8-1.2-5.8-1.9-10.9-1.9-4.5 0-10.7 0-13.8 0-3.1 0-5.9 0.3-6.2 0.7-0.4 0.4 0.2 1.2 1.2 1.9 1.1 0.6 4.3 1.1 7.2 1.1 2.9 0.1 5.3 0.6 5.3 1.3 0 0.7-1.8 1.4-4 1.6-2.8 0.2-4.2 1-4.4 2.5-0.2 1.2 0.4 2.9 1.2 3.8 0.9 0.9 2.6 3.4 3.8 5.6 1.2 2.2 2.2 5.1 2.2 6.5 0 1.4-0.9 4.7-1.9 7.5-1 2.7-2.4 5-3.1 5-0.7 0-1.3 0.8-1.3 1.9 0 1-0.8 2.1-1.8 2.5-1.1 0.3-1.9 1.7-1.9 3.1 0 1.3-0.6 2.8-1.3 3.1-0.7 0.3-1.2 2-1.2 3.7 0 1.8-0.6 3.4-1.3 3.8-0.6 0.3-2.4 4.7-3.9 9.7-1.5 4.9-2.8 11-3 13.4-0.1 2.4-0.6 6.3-1 8.7-0.4 2.4-1 8.1-1.3 12.5-0.4 6.7 0 8.9 2.2 12.2 1.5 2.3 2.2 4.4 1.7 4.7-0.5 0.3 0.2 2.7 1.6 5.3 1.4 2.6 2.5 5.7 2.5 6.9 0 1.2 0.5 2.3 1.1 2.4 0.5 0.2 3.1 6.3 5.6 13.5 2.4 7.2 4.5 13.8 4.5 14.6 0 0.9 2.6 7.1 5.7 13.8 3.2 6.7 8.9 18.6 12.8 26.5 3.9 7.9 9 17.5 11.4 21.2 2.4 3.8 5.6 8.3 7.2 10 1.6 1.8 4.3 5.7 6 8.8 2.4 4.4 3.1 7.7 3.4 16 0.3 8.7 0 10.6-1.8 11.9-1.4 0.9-2.2 3.3-2.4 6.4-0.1 2.8-0.6 5.6-1 6.3-0.5 0.6-1.6 5.1-2.4 9.9-0.8 4.9-2.1 13.8-2.8 20-0.7 6.2-1.8 19.4-2.3 29.4-0.6 9.9-1.5 25.2-2.1 33.8-0.8 12.3-0.7 16.1 0.5 17.5 1 1 1.7 5.1 1.8 9.9 0 4.4-0.3 8.8-0.7 9.6-0.4 0.9-0.3 2.3 0.2 3.2 0.6 0.8 0.3 3.5-0.5 5.9-1.2 3.4-1.6 3.7-1.7 1.6 0-1.8-1.2-3.3-3.2-4.1-1.7-0.7-3.9-2.1-5-3.1-1-1.1-1.6-2.7-1.2-3.8 0.4-1.1-0.7-2.5-2.8-3.7-1.9-1-2.9-1.8-2.2-1.8 0.7 0 0.6-0.7-0.3-1.6-0.8-0.9-2.3-3.9-3.3-6.6-1.8-4.8-1.8-5.1 4.2-10.6l-3.7-5.3c-3.6-5.2-3.7-5.8-3.8-20.9-0.1-8.6-0.1-17.5 0-19.7 0-3.3 0.4-3.9 2.1-3.1 1.7 0.7 2 0.4 1.4-1.6-0.4-1.4-1.1-5-1.6-8.1-0.6-4.3-0.3-6 1.2-7.2 1-0.9 3.2-1.3 4.7-0.9 2.6 0.5 2.7 0.3 1.8-2.8-0.5-1.9-1.3-6.8-1.6-11-0.4-4.1-1.2-9-1.8-10.9-0.8-2.4-0.7-4 0.4-5.3 1.2-1.6 1.2-2.3-0.5-4.1-1.1-1.2-2.9-4.1-4.1-6.5-1.1-2.4-5.4-8.6-9.5-13.7-4.2-5.2-7.5-10.4-7.5-11.6 0-1.2-1.5-3-3.4-3.9-1.9-0.9-4.1-3.3-4.9-5.3-0.8-2-2.2-5.8-3.1-8.6-0.8-2.7-1.7-5.6-1.8-6.2-0.2-0.7-0.9-3-1.6-5-0.7-2.1-1-4.2-0.7-4.7 0.3-0.5-0.2-2.5-1.2-4.4-1-1.9-2.4-6.5-3.2-10.3-0.8-3.8-1.9-9.7-2.5-13.1-0.5-3.4-2.1-10.5-3.4-15.6-1.5-5.6-4.2-11.9-6.8-15.6-2.4-3.5-5.5-8.5-6.9-11.3-1.4-2.7-3.5-7.1-4.6-9.6-1.4-3.2-2.9-4.7-4.6-4.7-1.3 0-3-1.1-3.7-2.5-0.7-1.4-2.4-2.5-3.8-2.5-1.3 0-2.7 0.8-3.1 1.9-0.4 1.2-1.3 1.5-2.5 0.9-1.1-0.5-2.5-2.8-3.2-5-0.6-2.2-1.9-4-2.7-4-0.9 0-3.2-2.1-5.2-4.7-2.1-2.6-4.4-6.4-5.3-8.5-0.8-2-1.6-5.7-1.8-8.1-0.1-2.4 0.8-7.4 2-11.2 2.1-6.4 2.1-8 0.5-21.2-0.9-7.9-1.7-18.6-1.6-23.8 0-5.1 0.5-15.5 1-23.1 0.9-11.4 0.7-14.5-1-18.4-1.7-3.8-2.3-4.4-3.7-3.1-1 0.8-2.4 5.8-3.1 10.9-0.8 5.2-2 13.3-2.7 18.1-0.6 4.8-2.3 11.3-3.8 14.4-1.4 3.1-3.7 7.7-5 10.3-1.4 2.6-3 6.8-3.6 9.3-0.6 2.6-2.4 8.9-3.9 14.1-1.5 5.1-3.2 10.5-3.7 11.9-0.6 1.3-2.2 5.3-3.7 8.7-1.5 3.4-5.2 10.2-8.2 15-2.9 4.8-8.9 12-13.3 16-4.3 4-8.9 8.1-10.1 9.1-1.6 1.2-2.8 1.4-4.7 0.5-1.3-0.7-2.7-1.3-3.1-1.3-0.3 0-0.3 0.9 0 1.9 0.4 1-0.2 2.2-1.2 2.5-1.1 0.3-2.8-0.2-3.8-1.2-1.1-1.2-1.9-4.3-1.9-7.9 0-3.2 0.6-6.4 1.4-7.1 0.8-0.8 1.1-3.9 0.6-8.1-0.4-3.9-1.5-7.6-2.6-8.5-1.5-1.2-2-1.2-2.5 0.3-0.3 1.1-1.2 1.9-1.8 1.9-0.7 0-1.3-1.1-1.3-2.5 0-1.4 0.6-2.8 1.3-3.1 0.6-0.4 1.2-2 1.2-3.8 0-2.3-0.9-3.4-3.7-4.3-3.5-1.2-3.9-1.9-5.4-10.7-0.8-5.1-2.1-9.4-2.8-9.4-0.7 0-2.2 1.3-3.3 2.8-1.8 2.4-2.2 2.6-2.2 0.7-0.1-1.3-1.3-2.4-3.2-2.8-1.7-0.3-3.1-1.5-3.1-2.5 0-1-1.4-2.1-3.1-2.5-2.3-0.4-3.3-1.6-3.8-4.3-0.5-3-1-3.5-2.5-2.5-1.3 0.8-2 0.7-2.3-0.4-0.3-0.8-1.1-3.5-1.9-5.9-0.7-2.4-1.4-5.8-1.4-7.5 0.1-1.7-1.4-5.2-3.1-7.8-1.7-2.6-4-8.2-5.1-12.5-1.1-4.3-1.7-9.2-1.3-10.9 0.5-2.4-0.2-4-3.1-6.9-2-2-3.7-4.6-3.7-5.6 0-1-1.2-3.9-2.8-6.4-1.5-2.5-4.6-6.6-6.8-9-2.3-2.5-4.4-4.6-4.7-4.6-0.3 0-3-2.5-5.9-5.6-3-3.1-6.5-5.6-7.8-5.7-1.4 0-3.4-0.7-4.4-1.5-1.1-0.8-2.9-3.1-4.1-5-1.2-1.9-3-3.4-4-3.4-1.1 0-2.5-1.3-3.2-2.8-0.6-1.6-2.6-3.5-4.3-4.4-1.7-0.8-3.1-2.1-3.1-2.8 0-0.7-0.7-1.2-1.6-1.2-0.9 0-3-1.5-4.8-3.4-1.8-1.9-3.6-4.5-4.1-5.7-0.4-1.2-1.3-1.9-2-1.5-0.7 0.3-3.5-2.5-6.3-6.3-2.7-3.8-6.4-7.4-8.1-8.1-1.7-0.7-3.4-2-3.7-2.8-0.3-0.9-1.6-2-2.8-2.5-1.5-0.7-2.7-0.3-3.7 1.2-1.3 2-1.8 1.8-5.6-2.6-3.3-3.9-4.8-4.7-7-4.1-2.7 0.8-2.7 0.9-0.6 3.3 1.2 1.4 2.9 2.6 3.7 2.5 0.9 0 1.6 0.6 1.6 1.2 0 0.7 1.1 1.6 2.5 1.9 1.6 0.4 2.5 1.7 2.5 3.5 0 1.5 1.1 6 2.5 9.9 1.4 4 2.8 9.3 3.2 11.9 0.4 2.6 1.7 5.2 2.8 5.8 1.2 0.7 3.9 3 6.2 5.3 2.2 2.3 4 4.9 4 5.8 0 0.8 1.9 2.6 4.3 4 2.4 1.4 4.5 3.6 4.8 5 0.2 1.4 0 4.2-1.1 10l-1.8-3.5c-1-1.9-2.5-3.4-3.4-3.4-0.8 0-2.9-2.1-4.6-4.6-1.7-2.6-4.8-7.1-6.9-10-2.1-3-3.8-6.2-3.8-7.2 0-1.1-1.4-2.1-3.4-2.5-1.9-0.3-4.1-1.4-5-2.5-1.2-1.5-1.9-1.6-3.2-0.3-0.9 0.8-2.2 3.2-3 5.3-0.8 2.5-2 3.7-3.6 3.5-2.1-0.2-2.3 0.3-1.4 5q0.9 5.2-0.6 6.8c-0.8 0.8-1.9 1.5-2.5 1.5-0.5 0-1-1.2-1-2.8 0.1-1.5-0.7-3.8-1.5-5.1-1.1-1.5-2.5-2.1-4.1-1.6-1.8 0.5-2.8 2.3-3.5 6.1-0.5 2.9-1.8 6.6-2.8 8.1-1 1.6-2.6 2.6-3.7 2.2-1.3-0.4-2.1 0.6-2.6 3.4-0.4 2.3-1.5 6.8-2.5 10-1.5 5-2.4 6.1-5.5 6.9-2.8 0.7-4.3 2.1-5.6 5.6-1.1 2.6-3.7 7.2-6 10.2-2.2 2.9-5.1 7.3-6.5 9.6-1.4 2.3-3.3 5.6-4.3 7.3-0.9 1.8-2.3 3.6-3.1 4.1-0.7 0.5-0.9 0.9-0.4 1 0.5 0-0.2 1.8-1.5 4-1.3 2.3-3.6 7.2-5.1 11-1.5 3.7-2.7 8.5-2.7 10.6-0.1 2-0.8 7.1-1.7 11.2-0.9 4.1-2.4 9.5-3.3 11.9-1 2.4-2.4 5.6-3.2 7.2-0.9 1.5-2.1 2.8-2.8 2.8-0.7 0-1.9-2.1-2.6-4.7-0.8-2.6-2.8-6.8-4.4-9.4-1.7-2.6-3-5.2-3-5.9 0-0.7-1.1-3.5-2.5-6.3-1.4-2.7-2.2-5.5-1.9-6.2 0.4-0.7 0.1-1.2-0.6-1.2-0.7 0-1.2-1.2-1.2-2.5 0-1.4 1.1-3.7 2.5-5 2.2-2.3 2.5-4.7 3-23.5 0.4-11.5 1.1-24.2 1.6-28.4 0.5-4.1 0.9-9.3 0.9-11.5 0.1-2.2 0.5-4.1 1-4.1 0.5 0 0.9-10.4 0.9-23.1 0-18.3-0.4-24-1.9-27.8-1.2-2.7-2.4-10.7-3-19-0.5-7.9-1.6-15.9-2.4-17.8-0.7-1.9-2-3.7-2.6-4.1-0.7-0.3-2.6 2.3-4.1 5.9-2 4.5-4.2 7.3-7.5 9.3-2.7 1.7-5.8 5.2-7.3 8.3-1.5 2.9-4.2 7.5-6.1 10.3-1.8 2.7-4.1 6.8-5.1 9.1-1 2.2-2.2 4.1-2.7 4-0.5 0-1 0.8-1 1.8 0 1.1-1.9 4.7-4.3 8.2-2.4 3.4-4.4 6.5-4.4 6.8 0 0.4-1.5 2.5-3.3 4.7-1.8 2.2-6.5 10.8-10.5 19.1-3.9 8.2-8.1 17.3-9.2 20.2-1.1 3-2 7.2-2 9.4 0 2.2 0.8 5.2 1.8 6.6 1.3 1.6 1.9 5.5 1.9 11.5 0.1 5-0.5 10.6-1.2 12.5-0.8 1.9-2.7 4.7-4.4 6.3-1.7 1.5-3.1 3.7-3.1 4.9 0 1.2-1.5 6.2-3.3 11-1.8 4.8-4.8 10.7-6.7 13.1-1.8 2.4-4.6 6.7-6 9.7-1.5 2.9-4 5.9-5.5 6.6-2.4 1.1-3.3 0.9-5.9-1.7-1.8-1.8-3.8-5.3-4.6-8-0.9-2.6-2.8-5.9-4.2-7.2-1.5-1.4-3.7-2.5-4.8-2.5-1.3 0-2.2-1.2-2.4-3.5-0.2-2.1 0.6-4.2 2.2-5.6 1.5-1.3 3-5.1 3.8-9.7 1.1-6.2 1-8.6-0.8-14.3-1.5-5-2-10.6-1.8-20.6 0.2-7.6 0.4-15.7 0.4-18.1 0.1-2.4-0.3-7.2-1.9-16.9l6.4 0.9c6.3 1 6.4 0.9 7.7-2.8 0.6-2 2.2-4.1 3.4-4.5 1.2-0.5 3-0.3 4.1 0.4 1.3 0.9 1.7 2.9 1.4 6.8-0.3 3.7 0.4 7.1 2.2 10.8 1.4 2.9 3.9 6.1 5.4 7.1 1.6 1.1 4.5 1.9 6.6 2 2 0 5-1 6.6-2.2 2.1-1.6 3.4-4.8 4.8-11 1.2-5.8 1.6-11.7 1.1-17.5-0.4-4.8-1.9-14.1-3.4-20.6-1.5-6.5-4.1-14.1-5.8-16.8-1.6-2.8-4.5-6.7-6.3-8.6-1.8-2-5.5-5.3-8.3-7.3-2.7-1.9-6.4-3.5-8.1-3.5-1.7 0-4.8-0.8-6.9-1.8-2-1.1-6.2-2.1-9.3-2.3-3.1-0.2-7.2-1.3-9.1-2.5-1.9-1.2-4.1-2-5-1.7-0.8 0.2-2.5 2.3-3.6 4.7-1.1 2.3-3.4 4.6-5 5.1-1.6 0.5-3.1 0.8-3.3 0.6-0.2-0.1-0.4-1.9-0.5-4 0-2-0.5-4.7-1.1-5.9-0.8-1.4-0.4-4.4 1-8.6 2.1-6 2.1-6.4 0-7.4-1.3-0.7-2.1-2.6-2.1-4.9 0-2.2-0.8-4-1.9-4.4-1.2-0.4-1.7-1.6-1.3-3.1 0.4-1.4 0.1-2.5-0.6-2.5-0.7 0-2.5 1.5-4.1 3.3-2.5 2.9-3.1 3.1-5.9 1.7-1.7-0.9-3.5-2.3-4-3-0.6-1-2-1-5 0.1-3.2 1.3-4.3 1.3-5 0-0.5-0.8 0-2.1 1.2-2.9 2.1-1.4 2.1-1.5 0-2.2-1.2-0.4-2.7-0.8-3.4-0.8-0.7 0-1.2 1-1.2 2.2 0 1.2-0.9 3.1-2 4.1-1.1 1-2.5 4-3.1 6.5-0.7 2.6-1.8 4.7-2.5 4.7-0.6 0-1.2 0.9-1.2 1.9 0 1-0.4 1.9-0.9 1.9-0.6 0-2.7-1.5-4.7-3.4-2.1-1.9-4.3-3.3-5-3.1-0.7 0.1-2.2-1.6-3.4-3.8-1.1-2.3-2.5-5.2-3.8-9.1l-0.8 2.5c-0.4 1.4-1.6 3.8-2.6 5.3-1.1 1.6-2.9 2.8-4.1 2.8-1.3 0-2.3 1.1-2.5 2.7-0.2 1.5-0.9 2.9-1.6 3.1-0.6 0.3-2.4-1.4-4-3.6-1.5-2.2-2.3-4.5-1.8-5.1 0.5-0.6 1.8-0.8 3-0.3 1.2 0.4 2.5 0.2 2.8-0.5 0.4-0.7-0.2-1.5-1.2-1.9q-1.9-0.6-1.2-3.7c0.3-1.8 0.8-4.4 1.1-6 0.3-1.5 2.9-4.4 5.9-6.4 3-2 13.6-7.8 23.5-12.9 16.4-8.4 18.5-9.1 23.1-8.4zm-7.4 211.7c0.6-0.1 1.9 1.5 2.8 3.3 0.8 1.9 1.5 5.4 1.5 7.8 0 2.4 0.5 5 1.1 5.7 0.6 0.6 1.5 4.2 1.9 7.8 0.8 6.5 0.7 6.5-2 5-1.6-0.8-3.3-1.7-3.8-1.9-0.5-0.2-1.6-0.3-2.4-0.3-0.8 0-1.1-0.4-0.6-1 0.4-0.5 0.1-1.6-0.7-2.5-0.9-0.9-1.2-2-0.7-2.5 0.5-0.5 0.3-2-0.5-3.4-0.8-1.4-2.4-3.2-3.7-4-1.4-1-2.4-3.3-2.5-6-0.2-4 0.3-4.7 4.1-6.2 2.3-1 4.8-1.8 5.5-1.8zm497 103.5c0.8 0 1.2 1.9 0.9 4.7-0.2 2.6-0.6 5.8-0.7 7.2-0.2 1.4-1.2 3.9-2.1 5.6-1 1.7-2.1 4.3-2.4 5.6-0.3 1.4-0.6 5.1-0.6 8.2 0.1 3.1 0.3 7.7 0.6 10.3 0.3 2.5 0.9 4.7 1.4 4.7 0.5 0 1.3 2.3 1.7 5.3 0.5 2.9 1.8 7.5 3.1 10.3 1.2 2.7 3 7.1 3.9 9.7 0.9 2.5 2.1 4.6 2.6 4.6 0.5 0 1.2 1.6 1.6 3.5 0.4 1.8 1.3 3.7 1.9 4 0.7 0.4 1.4 4.3 1.6 8.8 0.2 4.4-0.3 10.3-1.1 13.1-1 3.4-1.7 4.4-2.3 3.1-0.4-1-0.5-0.6-0.2 0.9 0.4 1.8 0 3.1-1.2 3.5-1.2 0.3-1.6 1.5-1.3 3.1 0.4 1.4 0.1 2.6-0.6 2.8-0.8 0.2-1.6 1.4-1.8 2.8-0.3 1.4-0.5 2.6-0.6 2.8 0 0.2-0.2 0.9-0.4 1.6-0.2 0.7-0.9 1.7-1.7 2.2-0.8 0.5-1.2 1.9-0.9 3.1 0.2 1.2-0.4 2.7-1.5 3.4-1.1 0.8-1.5 2.1-0.9 3.4 0.6 1.6 0.4 2-0.6 1.3-1.1-0.7-3.2 4.2-7.3 17.5-3.2 10.1-6.3 20.1-6.9 22.1-0.5 2.1-1.4 5.5-1.9 7.5-0.5 2.1-0.8 4.8-0.7 6 0.1 1.2-0.5 3.1-1.3 4.2-0.9 1.2-1.7 5-1.9 8.5-0.1 3.4-0.9 10.5-1.6 15.7-0.7 5.1-1.6 9.8-1.9 10.3-0.3 0.5-1.4 0.9-2.4 0.9-1.1 0-1.9 0.6-1.9 1.3 0 0.6 0.6 1.2 1.2 1.2 0.7 0 1.3 0.4 1.3 0.9 0.1 0.6-1.6 2.9-3.7 5.4-2.1 2.4-3.5 5-3.2 5.9 0.4 0.8 0.1 1.8-0.6 2.2-0.7 0.3-2.2 0.2-3.3-0.3-1.6-0.8-1.9-2.3-1.4-7.2 0.3-3.5 0.8-7.1 1.1-8.1 0.3-1-1-2.5-3-3.4-3.3-1.6-3.4-1.8-2.8-10.7 0.3-5 1.6-13.3 3-18.4 1.4-5.2 2.2-9.8 1.9-10.3-0.2-0.5 0.1-1.1 0.7-1.3 0.7-0.1 1.4-1.4 1.7-2.8 0.3-1.3 0.8-3.3 1.1-4.3 0.3-1.1 1.7-5.3 5.4-16.9l11.8 0.6 1.3-6.2c0.7-3.5 1.2-7.1 1.2-8.1 0-1.1-1.1-2.6-2.5-3.5-1.3-0.8-2.5-2.4-2.5-3.4 0.1-1-1-4.1-4.8-11.9l2.7-2.1c1.5-1.2 3.7-2.5 5-2.8 1.2-0.4 2.1-1.2 2.1-1.9 0-0.7-1.1-3.9-2.6-7.2-1.4-3.3-3.7-8.2-5.1-10.9-1.4-2.8-3.3-7.8-4.1-11.3-0.9-3.4-2.5-11-3.5-16.8-1.1-5.9-2.6-14-3.3-18.1-0.7-4.2-1.3-8.5-1.3-9.7 0-1.2 0.5-2.2 1.2-2.2 0.7 0 1.4 1.3 1.6 2.8 0.2 1.7 1.3 3 2.8 3.2 1.3 0.3 3-0.4 3.7-1.5 1.2-1.8 1.5-1.8 3.4 0.2 1.1 1.2 4 5.8 6.4 10.3 2.4 4.4 4.9 10.9 5.6 14.3 0.7 3.5 1.9 8.8 2.7 11.9 0.8 3.1 2.5 7.4 3.8 9.7 1.4 2.2 2.5 5.2 2.5 6.5 0 1.6 1.1 2.8 2.8 3.3 1.5 0.4 3.8 0.4 5 0 1.6-0.6 2.1-1.9 1.8-5.1-0.1-2.4-0.7-4.4-1.2-4.4-0.5 0-1.2 1-1.4 2.2-0.3 1.2-0.6 0.6-0.6-1.3-0.1-1.9 0.4-3.1 1.1-2.8 0.7 0.4 1.2-0.5 1.2-1.9 0-1.3-1.1-3-2.5-3.7-1.4-0.7-2.5-2.1-2.5-3.1 0-1.1-2.3-6.8-5.1-12.8-4-8.6-4.8-11.4-3.7-13.1 0.7-1.2 1.3-3.1 1.3-4.1 0-1-0.5-1.9-1.2-1.9-0.7 0-2.2-1.8-3.4-4-1.5-3-2.1-7.7-2.3-17.2-0.1-7.2 0.2-13.4 0.7-13.7 0.4-0.4 1.2-2.2 1.7-4.1 0.4-1.9 0.3-3.3-0.3-3.1-0.7 0.2-1.2-0.1-1.3-0.6-0.1-0.5-0.1-1.8-0.1-2.8 0-1.1 0.9-1.8 2.1-1.6 1.4 0.2 2.4-1 3.2-4.1 0.6-2.4 2-5 3.2-5.9 1.1-0.8 2.6-1.6 3.4-1.6zm-247.9 35c1.6 0 3.1 1.5 4.3 4.4 1.1 2.4 1.9 5.5 1.9 6.9 0 1.3 0.4 2.4 1 2.4 0.5 0 1.1 1 1.3 2.2 0.3 1.2 0.5 5.9 0.6 10.3 0 4.5-0.2 10.1-0.4 12.5-0.2 2.4-0.7 5-1.1 5.6-0.4 0.7-0.9 2.1-1.1 3.2-0.2 1-0.7 3.8-1 6.2-0.3 2.4-0.8 4.7-1.1 5-0.3 0.3-0.9-1.3-1.4-3.7-0.4-2.4-1.2-5-1.6-5.7-0.4-0.7-0.9-3.7-1-6.8-0.1-3.1-0.3-9.3-0.4-13.8-0.2-4.4-0.9-10.1-1.7-12.5-0.8-2.4-1.3-7-1.1-10.3 0.3-4.9 0.8-5.9 2.8-5.9zm-6 91.7c1.2 2.5 2.9 4.8 3.8 5.1 1 0.4 1.5 3.2 1.5 7.4 0 3.9-0.4 6.4-1.1 5.9-0.7-0.5-0.8 0.3-0.3 2 0.5 1.6 0.3 2.8-0.4 2.8-0.7 0-1.3 1.5-1.2 3.4 0 1.9-0.4 3-1 2.5-0.5-0.6-1.6 1.1-2.3 3.7-0.8 2.6-1.2 7.6-1.1 11 0.2 3.4-0.2 6.5-0.8 6.9-0.6 0.3-1.4 7.3-1.9 15.6-0.5 8.2-0.9 18.1-0.9 21.8 0 3.8 0.1 8.6 0.4 10.6 0.2 2.1 0 5.3-0.4 7.2-0.7 2.8-0.4 3.5 1.4 3.4 1.9 0 1.9 0.2-0.3 1.9-1.6 1.1-2.1 2.2-1.3 2.8 0.7 0.5 1.2 2.4 1.1 4.1-0.1 1.7-0.2 3.8-0.3 4.7-0.1 1-1 1.2-2.3 0.6-1.6-0.6-2-0.4-1.3 0.7 0.5 0.8 0.7 2.2 0.3 3.1-0.4 0.8-2 1.7-3.7 1.8-1.8 0.2-2.9-0.2-2.5-0.9 0.3-0.7-1-1.3-2.8-1.3-2.1 0-4.1 1-5 2.5-1.2 2-2.8 2.5-6.9 2.3-2.9-0.1-6.1-0.8-7.1-1.5-0.9-0.8-2.1-1.2-2.5-1.1-0.4 0.2-0.9-0.1-1.1-0.6-0.2-0.5 0.7-2.2 1.9-3.7 1.5-1.9 3.7-2.8 6.6-2.8 3.3-0.1 3.9-0.4 2.5-1.3-1.7-1.1-1.7-1.2 0-1.3 1 0 2.7 1.2 3.8 2.7 1 1.6 2.5 2.4 3.4 1.9 1.2-0.6 1.1-1.6-0.3-4.6-1.1-2-1.9-6.5-1.9-9.9 0-3.5-0.4-6.3-0.9-6.3-0.5 0-1.1-1.1-1.3-2.5-0.2-1.5 0.4-2.5 1.6-2.5 1 0 2.1-0.8 2.5-1.9 0.3-1 0.6-2.7 0.6-3.7 0-1-0.8-1.9-1.9-1.9-1 0-2.1-0.5-2.5-1.2-0.3-0.7 0.2-1.1 1.2-1 1 0.2 1.8-0.2 1.9-0.9 0-0.7-0.5-1.2-1.1-1.2-0.6 0-1.6-0.5-2.2-1-0.5-0.6-0.3-1 0.5-1 1 0.1 1.3-0.8 0.9-2.1-0.6-1.7-0.3-2 1.2-1.3 1.4 0.7 2.1 0.3 2.4-1.2 0.3-1.2 0.6-5.3 0.8-9.1 0.1-3.7 0.9-7.2 1.7-7.6 1.1-0.6 1.1-1-0.1-1.6-1.2-0.5-1.2-1.6-0.2-4.2 0.7-1.9 0.9-4.1 0.6-5-0.4-0.8 0.1-3.1 1.2-5 1-1.9 1.8-4.1 1.8-5 0-0.8-0.7-1.6-1.5-1.6-0.9-0.1-0.5-0.5 0.9-1.1 1.5-0.5 3.4-0.4 4.6 0.4 1.5 1 2.5 1 3.7-0.1 1-0.8 1.7-3.7 1.7-6.5 0-2.8-0.3-5.1-0.6-5.1-0.4 0-0.5-2.7-0.4-5.9 0.1-3.3 0.8-7.4 1.4-9.1 0.7-1.9 0.7-4.4 0-6.2-0.6-1.8-0.7-4.3-0.3-5.7 0.5-1.3 1.5-3.2 2.2-4.1 1.1-1.3 1.9-0.8 3.6 2.8z"/>
		<path id="Path 2" class="s0" d="m578.3 145.6c-3.9 2.6-4.5 3.6-3.8 5.8 0.5 1.5 3.4 4 6.3 5.6 5.1 2.8 5.5 2.9 11.2 1.1 3.5-1.1 7.2-1.5 9.1-0.9 1.7 0.5 5.2 2.3 7.8 4 3.6 2.4 4.6 4 4.7 6.9 0 2-0.8 4.9-1.9 6.2-1 1.4-1.8 3.8-1.9 5.3 0 1.6 0.8 4.1 1.8 5.7 0.9 1.5 4.6 4 8.1 5.6 3.5 1.5 7.7 2.8 9.3 2.8 1.9 0 5-2 8.2-5.3 3.3-3.4 5.4-6.9 5.9-9.7 0.4-2.4 1.6-6.1 2.6-8.1 1.1-2.2 1.5-5 1-6.9-0.4-1.7-1.2-5-1.7-7.4l-0.9-4.3-43.7-0.4c-11.1-7.1-15-9.1-15.9-9.1-0.8 0-3.6 1.4-6.2 3.1zm-101.9 15.9c0.2 1.6 1.3 2.8 2.3 2.8 1.1 0 1.9-1.2 2-2.8 0-1.9-0.6-2.8-2.3-2.8-1.8 0-2.3 0.7-2 2.8zm-49 3.2c-2.2 0.3-3.4 1.3-3.7 3.4-0.6 2.9-0.3 3 6 2.7 4.8-0.1 6.5-0.7 6.3-1.9-0.2-1-1.5-2.4-2.9-3.2-1.4-0.8-3.9-1.3-5.7-1zm63.9 3.7c-0.1 0.9-1.3 1.7-2.7 1.9l-2.7 0.3c4.1 5.3 5.6 6.6 5.9 6.2 0.3-0.3 2.9 1.9 5.6 5 2.8 3.1 5.5 5.5 6.1 5.3 0.6-0.1 2.5 1.2 4.1 2.9 1.6 1.8 5.9 5.6 9.5 8.4 3.6 2.9 6.5 6.1 6.5 7.1 0 1.1 2.6 3.3 5.7 5 3.1 1.8 6.1 3.2 6.8 3.2 0.7 0 1.3-1.2 1.3-2.5 0-1.4-1.7-3.8-3.8-5.3-2.1-1.6-3.8-3.3-3.7-3.8 0-0.5-1.6-2.6-3.4-4.6-1.9-2-6.6-5.9-10.3-8.7-3.8-2.8-7.3-5.1-7.9-5.1-0.5 0-0.9-0.6-0.9-1.3 0-0.6-1.3-2.6-2.8-4.3-1.5-1.7-3.8-3.1-5-3.1-1.2 0-2.7-1.2-3.4-2.5-0.7-1.4-1.8-2.3-2.5-1.9-0.7 0.3-1.5-0.4-1.8-1.6-0.2-1.2-0.5-1.5-0.6-0.6zm-50.4 7.8c2.2 2 5.3 3.7 6.9 3.7 1.6 0 2.2-0.4 1.4-0.9-0.8-0.5-1.6-2-1.9-3.4-0.3-1.9-1.6-2.6-5.4-2.8l-5-0.4zm-85.7 10.9c-0.7 0.3-2.6 2.5-4.2 4.9-1.6 2.5-3.5 4.1-4.4 3.7-0.9-0.4-1.6-0.2-1.6 0.5 0 0.7-1.4 1.8-3.1 2.5-2.2 0.9-3.1 2.2-3.2 4.7 0 1.9-0.3 8.7-0.7 15.3-0.3 6.5-1.1 14.6-1.6 18.1-0.6 3.4-0.8 8.6-0.6 11.5l0.5 5.3c4.8-5.8 7.3-7.5 8.7-7.5q2.5 0 2.5 2.5c0 1.4 0.7 2.4 1.6 2.1 0.8-0.2 1.4-1.9 1.2-3.7-0.1-1.9 0.3-3.4 1-3.4 0.7 0 3.1-1.8 5.4-4 2.3-2.2 4.4-5.5 4.9-7.2 0.4-1.7 1.8-6 3-9.5 1.6-4.5 2.8-6.2 4.1-5.7 1.1 0.3 2.6-0.5 3.5-1.8 0.9-1.3 1.6-4.5 1.6-7-0.1-2.7-1.3-6.7-2.9-9.3-2-3.3-2.3-4.7-1.2-5 0.8-0.2 1.5-1 1.5-1.7 0-0.6-1.2-1.2-2.8-1.2-1.5 0-3.9-0.7-5.3-1.7-1.3-0.9-3.4-1.9-4.5-2.3-1.1-0.3-2.6-0.4-3.4-0.1zm109.6 3.8c0 0.5 3 3.6 6.6 6.9 3.6 3.3 8 6.7 9.7 7.5 1.7 0.9 5.3 4.6 7.9 8.4 2.6 3.8 6.8 9.9 9.3 13.6 2.8 4 4.7 8.3 4.7 10.4 0 2.3 1.7 5.7 4.7 9.5 2.7 3.2 5.5 7.4 6.3 9.2 0.8 1.9 2.5 3.5 3.7 3.5 1.2 0 2.4 0.8 2.8 1.9 0.4 1.3 1.2 1.5 2.8 0.7 1.3-0.7 3.4-0.6 5.3 0.2 1.7 0.8 3.8 2.3 4.7 3.3 0.9 1.1 3 2.1 4.7 2.3 2.7 0.3 3-0.1 2.5-3.1-0.2-1.9-1.1-6-1.9-9.1-0.8-3.1-1.6-6.4-1.7-7.5-0.1-1-1.3-4.1-2.6-6.8-1.2-2.8-5.6-7.8-9.6-11.3-4.1-3.4-8.3-7.2-9.5-8.5-1.2-1.3-8.6-6.5-16.3-11.6-7.7-5.1-14.9-9.2-15.9-9.2-1 0-1.9-0.6-1.9-1.3 0-0.6-1.2-1.8-2.8-2.5-1.5-0.7-4.8-2.7-7.2-4.4-2.4-1.7-4.8-3.1-5.3-3.1-0.5 0-0.9 0.5-1 1zm86.4 135.8c-0.8 1-1.1 2.4-0.8 3.1 0.4 0.7 1.8 1.3 3.2 1.3 1.8 0 2.5-0.9 2.5-3.2 0-1.8-0.8-3.1-1.8-3.1-0.9 0-2.3 0.9-3.1 1.9zm189.7 134.5c-1 0.8-1.7 3.2-1.5 5.3 0.1 2.1 1.1 7.7 2.2 12.5 1.1 4.8 2.5 9.9 3 11.3 0.5 1.3 1.6 5.4 2.4 9 0.7 3.6 2.2 8 3.2 9.7 1.1 1.7 2.9 3.1 4.1 3.1 1.2 0 2.6 0.4 3.2 0.9 0.6 0.6 2.8 1 5 1 3.4 0 4.3 0.7 6.5 5.2 2.1 4.5 2.8 5 4.6 3.7 1.5-1 2.1-3.2 2.2-8 0-6.1-0.2-6.6-3.8-8.1-2.1-0.8-3.5-2.1-3.2-2.8 0.3-0.7-0.2-3.6-1.2-6.6-1-2.9-3.3-7.9-5.1-11.2-1.8-3.3-6.4-10.4-10.3-15.8-3.8-5.4-7.6-10.1-8.3-10.3-0.7-0.3-2.1 0.2-3 1.1z"/>
		<path id="Path 3" fill-rule="evenodd" class="s1" d="m145.7 185.8c0.8 0.5 2.9 0.9 4.6 0.9 2.4 0.1 3.4 1 4.3 4.4 0.8 2.4 3.1 5.6 5.7 7.4 2.4 1.8 4.8 4 5.3 4.9 0.5 0.9 2.4 1.3 4.7 0.9 2-0.3 4-0.1 4.3 0.6 0.4 0.7 1.8 1.3 3.1 1.3 1.5 0 3 1.2 3.8 3.1 0.7 1.7 1.2 5.1 1.2 7.5 0 2.4-0.5 5.3-1.1 6.5-0.6 1.2-3.8 7.8-7.1 14.5-3.4 6.8-6.6 12.7-7.2 13.1-0.6 0.5-1.5 0-2.1-1-0.6-1.1-1.3-1.6-1.7-1.3-0.4 0.4-1 3.7-1.4 7.5-0.5 5.1-0.2 7.6 1.2 9.7 1.1 1.5 2 4.9 2 7.5 0 2.6 0.5 5.5 1.1 6.5 0.9 1.5 1.8 0.8 4.4-3.4 1.7-2.9 3.2-5.9 3.2-6.5 0-0.7 1.1-1.9 2.5-2.5 1.4-0.7 3.6-3.8 5-6.9 1.4-3.1 3.5-8 4.8-10.9 1.3-3 2.8-6.7 4.1-11.6l3.1 3.1c1.7 1.8 3 4.3 3 5.7-0.1 1.3-1.2 4.7-2.5 7.4-1.3 2.8-2.5 6-2.5 7.2 0 1.2-1.1 3.3-2.5 4.7-1.4 1.4-2.9 2.5-3.4 2.6-0.6 0-2.6 1.9-4.5 4.1-1.9 2.1-6.3 7.3-9.7 11.4-4.9 5.9-6.2 8.4-6.2 11.9 0 2.4-0.9 8.4-2.1 13.4-1.2 5-2.6 9.1-3.1 9.1-0.6 0-2.1-0.6-3.5-1.3-1.4-0.7-3.1-3.1-3.8-5.3-0.9-2.8-0.9-5.1 0-7.5 0.7-1.9 1.4-6.9 1.5-11.2 0.1-5.1-0.6-9.3-1.9-11.9-1.1-2.2-2.4-4.3-3-4.6-0.5-0.3-2.4 0.2-4.3 1.2-3.1 1.6-3.5 1.6-4.1 0-0.3-1.1-1.2-1.9-1.9-1.9-0.6 0-2.8-0.7-4.6-1.5-1.9-0.8-3.9-1.5-4.3-1.5-0.5-0.1-1.3-0.6-1.9-1.1-0.6-0.5-5-1-9.8-1-6.4-0.1-8-0.4-6.2-1.2 2-1 1.5-1.1-2.2-0.9-2.6 0.2-4.5 0.1-4.3-0.3 0.2-0.3 1.4-3 2.8-5.9 1.3-3 3-5.3 3.7-5.3 0.7 0 2.2-1.1 3.4-2.5 1.2-1.4 3.1-4.8 4.1-7.5 1.1-2.9 1.3-5 0.6-5-0.7 0-1.2-1.3-1.2-2.8 0.1-2.7 0.2-2.7 1.2-0.3 0.9 2.1 1.1 2.1 1.2 0.3 0-1.2 0.7-3.8 1.5-5.6 0.7-1.9 1.5-4.9 1.7-6.6 0.1-1.7 0.7-6.8 1.3-11.2 1-7.6 1.5-8.6 7.7-15 3.7-3.8 7-8.3 7.4-10 0.5-1.7 1.3-3.8 2-4.7 0.6-0.8 1.8-1.2 2.6-0.7zm-32.9 61.6c1.4 0 2.8 0.8 3.1 1.9 0.4 1-0.2 2.7-1.2 3.7-1 1-2.4 1.6-3.1 1.2-0.7-0.3-1.3-2-1.3-3.7 0-2.3 0.7-3.1 2.5-3.1zm66 93.9c2.7 4.9 4 6 6.8 6 2.6 0 3.5 0.7 4 3.1 0.4 1.7 1.5 3.1 2.5 3.1 1 0 2.7 1.8 3.6 4.1 1 2.2 3.2 5.6 5 7.5 2.3 2.4 3.1 4.3 2.6 6.5-0.3 1.7-1.6 4.1-2.8 5.3-1.3 1.2-2.1 3.2-1.9 4.4 0.2 1.2-0.5 2.5-1.5 2.8-1 0.4-1.6 1.2-1.2 1.9 0.3 0.7 0 2.1-0.7 3.1-0.7 1-0.9 2.4-0.6 3.1 0.3 0.7 0.2 1.3-0.3 1.3-0.5 0-1 1.5-1.1 3.4-0.2 1.9-0.4 4.6-0.7 5.9-0.2 1.4-0.9 2.8-1.4 3.2-0.6 0.3-1 10.1-1 21.8 0 11.7-0.6 23.5-1.3 26.2-0.8 2.8-2 6.6-2.8 8.5-0.8 1.9-1.7 3.4-2 3.4-0.4 0.1-1.9-1.4-3.4-3.1-1.6-1.7-2.6-3.1-2.2-3.1 0.3 0-0.4-1.6-1.7-3.5-1.2-1.9-2.9-5.7-3.8-8.4-0.8-2.7-1.8-10.6-2.2-17.5-0.3-6.9-0.6-13.9-0.6-15.6 0-1.7 0.3-7 0.8-11.9 0.4-4.8 0.2-11.8-0.5-15.6-0.7-3.7-2.4-11-3.8-16.2-1.6-6.1-2-9.9-1.3-10.9 0.7-0.9 0.9-3.4 0.5-5.6-0.3-2.3-0.3-5.1 0-6.3 0.4-1.2 1.8-2.2 3.2-2.2 1.4 0 2.8-1 3.2-2.2 0.4-1.2 1.3-3.5 2-5.3 1.2-3 1.3-3 4.6 2.8zm443.5 97.5c2 1.3 2.1 1.8 0.8 3.4-0.9 1-2 2.8-2.5 4-0.4 1.2-1.4 2.2-2.1 2.2-0.6 0-1.2-0.5-1.2-1.2 0-0.7 0.7-1.6 1.6-2.1 1.2-0.6 1.1-0.9-0.2-1.5-1.3-0.6-1.3-1.4-0.3-3.6 1.3-2.4 1.8-2.6 3.9-1.2zm14.5 62.1c0.6 0 1.7 0.9 2.5 2.1 0.7 1.3 1.8 4.2 2.4 6.6 0.5 2.4 1 6 1.1 8 0 2-0.5 3.9-1.2 4.1-0.6 0.3-1.7-1.4-2.3-3.6-0.5-2.3-1.2-6.1-1.5-8.5-0.3-2.4-0.8-5.3-1.3-6.5-0.4-1.2-0.2-2.2 0.3-2.2zm108.5 173.6c0.7-0.1 2.1 0.6 3.1 1.5 1.4 1.3 1.5 2.6 0.5 6-0.7 2.4-1.7 5-2.1 5.9-0.5 0.8-2.1 1.5-3.7 1.6-1.5 0-3.7-1-4.8-2.2-1.1-1.2-2.4-3.2-2.8-4.4-0.6-1.6-0.2-2.2 1.4-2.2 1.2 0 1.7-0.4 1.2-0.9-0.5-0.6 0.6-1.9 2.5-3.1 1.9-1.1 4-2.1 4.7-2.2z"/>
	</g>
</svg>